<?xml version="1.0" encoding="UTF-8" standalone="no"?>
<!-- Created with Inkscape (http://www.inkscape.org/) -->

<svg
   xmlns:dc="http://purl.org/dc/elements/1.1/"
   xmlns:cc="http://creativecommons.org/ns#"
   xmlns:rdf="http://www.w3.org/1999/02/22-rdf-syntax-ns#"
   xmlns:svg="http://www.w3.org/2000/svg"
   xmlns="http://www.w3.org/2000/svg"
   xmlns:sodipodi="http://sodipodi.sourceforge.net/DTD/sodipodi-0.dtd"
   xmlns:inkscape="http://www.inkscape.org/namespaces/inkscape"
   width="595.78229"
   height="878.57019"
   id="svg4455"
   version="1.1"
   inkscape:version="0.48.2 r9819"
   sodipodi:docname="a.svg">
  <defs
     id="defs4457" />
  <sodipodi:namedview
     id="base"
     pagecolor="#ffffff"
     bordercolor="#666666"
     borderopacity="1.0"
     inkscape:pageopacity="0.0"
     inkscape:pageshadow="2"
     inkscape:zoom="0.35"
     inkscape:cx="-183.53742"
     inkscape:cy="439.28508"
     inkscape:document-units="px"
     inkscape:current-layer="layer1"
     showgrid="false"
     inkscape:window-width="1174"
     inkscape:window-height="735"
     inkscape:window-x="20"
     inkscape:window-y="20"
     inkscape:window-maximized="0"
     fit-margin-top="0"
     fit-margin-left="0"
     fit-margin-right="0"
     fit-margin-bottom="0" />
  <metadata
     id="metadata4460">
    <rdf:RDF>
      <cc:Work
         rdf:about="">
        <dc:format>image/svg+xml</dc:format>
        <dc:type
           rdf:resource="http://purl.org/dc/dcmitype/StillImage" />
      </cc:Work>
    </rdf:RDF>
  </metadata>
  <g
     inkscape:label="Layer 1"
     inkscape:groupmode="layer"
     id="layer1"
     transform="translate(-77.108852,-93.0771)">
    <path
       style="fill:#000000"
       d="m 380.72399,93.0771 c -182.95563,0 -242.69044,111.61574 -291.192975,545.7785 -19.677228,176.11578 -17.094852,219.90056 15.806375,252.9216 35.36088,35.49142 43.82189,34.35332 74.87806,-7.48774 19.2194,-25.89138 42.73865,-106.75982 52.41609,-179.70755 l 17.47008,-132.28459 117.31066,0 c 128.71592,0 138.34818,16.18676 151.42018,252.92149 3.23221,58.57133 10.29801,115.47877 15.80659,126.46087 5.50808,10.98208 39.13611,19.96758 74.87814,19.96758 78.69045,0 80.29297,-30.22157 25.7924,-413.49374 C 578.08823,155.76056 544.10063,93.0771 380.72399,93.0771 z m -2.50254,159.74004 c 59.17039,0 97.40935,133.75975 47.42393,165.56392 -44.22914,28.1433 -150.58941,25.28815 -150.58941,-4.15988 0,-71.57143 57.63147,-161.40404 103.16548,-161.40404 z"
       id="path3585"
       inkscape:connector-curvature="0"
       inkscape:export-filename="/Users/Shared/geekettes/keith_haring/font/a.svg.png"
       inkscape:export-xdpi="27.18"
       inkscape:export-ydpi="27.18" />
  </g>
</svg>
