<?xml version="1.0" encoding="UTF-8" standalone="no"?>
<!-- Created with Inkscape (http://www.inkscape.org/) -->

<svg
   xmlns:dc="http://purl.org/dc/elements/1.1/"
   xmlns:cc="http://creativecommons.org/ns#"
   xmlns:rdf="http://www.w3.org/1999/02/22-rdf-syntax-ns#"
   xmlns:svg="http://www.w3.org/2000/svg"
   xmlns="http://www.w3.org/2000/svg"
   version="1.1"
   width="695.78229"
   height="878.57019"
   id="svg4455">
  <defs
     id="defs4457" />
  <metadata
     id="metadata4460">
    <rdf:RDF>
      <cc:Work
         rdf:about="">
        <dc:format>image/svg+xml</dc:format>
        <dc:type
           rdf:resource="http://purl.org/dc/dcmitype/StillImage" />
        <dc:title></dc:title>
      </cc:Work>
    </rdf:RDF>
  </metadata>
  <g
     transform="translate(-77.108852,-93.0771)"
     id="layer1">
    <path
       d="m 380.72399,93.0771 c -182.95563,0 -242.69044,111.61574 -291.192975,545.7785 -19.677228,176.11578 -17.094852,219.90056 15.806375,252.9216 35.36088,35.49142 43.82189,34.35332 74.87806,-7.48774 19.2194,-25.89138 42.73865,-106.75982 52.41609,-179.70755 l 17.47008,-132.28459 117.31066,0 c 128.71592,0 138.34818,16.18676 151.42018,252.92149 3.23221,58.57133 10.29801,115.47877 15.80659,126.46087 5.50808,10.98208 39.13611,19.96758 74.87814,19.96758 78.69045,0 80.29297,-30.22157 25.7924,-413.49374 C 578.08823,155.76056 544.10063,93.0771 380.72399,93.0771 z m -2.50254,159.74004 c 59.17039,0 97.40935,133.75975 47.42393,165.56392 -44.22914,28.1433 -150.58941,25.28815 -150.58941,-4.15988 0,-71.57143 57.63147,-161.40404 103.16548,-161.40404 z"
       id="path3585"
       style="fill:#000000" />
  </g>
</svg>
