<?xml version="1.0" encoding="UTF-8" standalone="no"?>
<!-- Created with Inkscape (http://www.inkscape.org/) -->

<svg
   xmlns:dc="http://purl.org/dc/elements/1.1/"
   xmlns:cc="http://creativecommons.org/ns#"
   xmlns:rdf="http://www.w3.org/1999/02/22-rdf-syntax-ns#"
   xmlns:svg="http://www.w3.org/2000/svg"
   xmlns="http://www.w3.org/2000/svg"
   xmlns:sodipodi="http://sodipodi.sourceforge.net/DTD/sodipodi-0.dtd"
   xmlns:inkscape="http://www.inkscape.org/namespaces/inkscape"
   width="555.40662"
   height="936.79584"
   id="svg4455"
   version="1.1"
   inkscape:version="0.48.2 r9819"
   sodipodi:docname="b.svg">
  <defs
     id="defs4457" />
  <sodipodi:namedview
     id="base"
     pagecolor="#ffffff"
     bordercolor="#666666"
     borderopacity="1.0"
     inkscape:pageopacity="0.0"
     inkscape:pageshadow="2"
     inkscape:zoom="0.35"
     inkscape:cx="-149.72526"
     inkscape:cy="408.39796"
     inkscape:document-units="px"
     inkscape:current-layer="layer1"
     showgrid="false"
     inkscape:window-width="1174"
     inkscape:window-height="735"
     inkscape:window-x="20"
     inkscape:window-y="20"
     inkscape:window-maximized="0"
     fit-margin-top="0"
     fit-margin-left="0"
     fit-margin-right="0"
     fit-margin-bottom="0" />
  <metadata
     id="metadata4460">
    <rdf:RDF>
      <cc:Work
         rdf:about="">
        <dc:format>image/svg+xml</dc:format>
        <dc:type
           rdf:resource="http://purl.org/dc/dcmitype/StillImage" />
      </cc:Work>
    </rdf:RDF>
  </metadata>
  <g
     inkscape:label="Layer 1"
     inkscape:groupmode="layer"
     id="layer1"
     transform="translate(-43.29669,-3.9642433)">
    <path
       style="fill:#000000"
       d="M 270.82831,4.0948246 C 78.972551,8.4664486 65.077761,56.415339 48.688551,459.18736 c -7.03122,172.82657 -7.34536,280.41144 0,339.44755 2.07662,210.73419 42.5441,129.71224 243.771189,112.31712 162.46099,-86.6113 258.36088,-157.31725 275.38385,-186.3633 41.72672,-76.39574 41.64155,-88.98838 -3.32792,-159.73989 -35.10553,-55.23375 -77.83065,-85.68486 -150.58697,-104.82949 -10.65454,-2.8042 -21.64475,-5.25082 -33.27912,-7.48774 12.90698,-7.80782 25.94184,-17.05111 67.38902,-49.08683 l 57.40785,-61.5665 C 578.43432,264.18344 579.97316,164.49487 508.77438,73.981029 461.5233,13.913381 432.79935,4.0948246 311.594,4.0948246 c -14.42451,0 -27.97575,-0.293808 -40.76569,0 z m 8.31985,135.6126354 c 10.7134,-0.1074 21.94542,1.01001 34.94313,2.49459 53.85096,6.15534 76.54204,23.13826 76.54204,58.23859 0,27.41135 -38.16201,79.62913 -84.86187,115.64503 l -84.86186,64.89439 -18.30354,-97.34154 c -19.10469,-101.83127 1.54388,-143.11531 76.5421,-143.9324 z m -76.5421,423.47724 77.37277,4.99205 c 176.60052,12.33073 192.05536,112.79656 30.78444,198.01099 -43.35869,22.90821 -89.36656,40.06569 -103.16535,39.10301 -8.44502,-0.59005 -16.16566,-22.60334 -20.80076,-54.07864 2.3694,-20.93797 4.16116,-43.58709 4.16116,-69.05436 0,-60.28578 2.15647,-95.49991 11.64774,-118.97305 z"
       id="path3593-8"
       inkscape:connector-curvature="0" />
  </g>
</svg>
