<?xml version="1.0" encoding="UTF-8" standalone="no"?>
<!-- Created with Inkscape (http://www.inkscape.org/) -->

<svg
   xmlns:dc="http://purl.org/dc/elements/1.1/"
   xmlns:cc="http://creativecommons.org/ns#"
   xmlns:rdf="http://www.w3.org/1999/02/22-rdf-syntax-ns#"
   xmlns:svg="http://www.w3.org/2000/svg"
   xmlns="http://www.w3.org/2000/svg"
   version="1.1"
   width="820.38"
   height="945.31531"
   id="svg4455">
  <defs
     id="defs4457" />
  <metadata
     id="metadata4460">
    <rdf:RDF>
      <cc:Work
         rdf:about="">
        <dc:format>image/svg+xml</dc:format>
        <dc:type
           rdf:resource="http://purl.org/dc/dcmitype/StillImage" />
        <dc:title></dc:title>
      </cc:Work>
    </rdf:RDF>
  </metadata>
  <g
     transform="translate(16.226797,-3.2155291)"
     id="layer1">
    <path
       d="M 208.49564,3.371438 C 175.72678,4.355344 146.52368,9.185424 124.36016,20.198514 61.873784,51.24723 53.336261,82.441004 36.48534,324.02104 26.18248,471.67786 7.7070836,662.30094 -4.6476116,748.43762 -25.707745,895.26875 -22.701251,906.91145 43.963835,933.53571 159.69243,979.75732 483.57424,912.66583 588.97608,820.4203 794.85024,640.23744 769.75757,261.7684 541.298,107.13842 441.09825,39.318722 306.80155,0.427819 208.49564,3.371438 z m -18.69682,147.704462 95.35341,18.69671 c 119.02223,23.80346 199.65767,94.68503 253.3397,221.55675 36.46905,86.18184 35.52681,111.31029 -7.47872,201.92514 -40.06499,84.43177 -76.211,111.862 -200.05242,148.63928 -83.42037,24.77266 -158.07292,44.87222 -165.4678,44.87222 -7.39208,0 -5.52256,-50.48119 4.67564,-112.18062 10.19797,-61.69935 19.33091,-204.72786 19.63019,-317.84509 l 0,-205.66439 z"
       id="path3661"
       style="fill:#000000" />
  </g>
</svg>
