<?xml version="1.0" encoding="UTF-8" standalone="no"?>
<!-- Created with Inkscape (http://www.inkscape.org/) -->

<svg
   xmlns:dc="http://purl.org/dc/elements/1.1/"
   xmlns:cc="http://creativecommons.org/ns#"
   xmlns:rdf="http://www.w3.org/1999/02/22-rdf-syntax-ns#"
   xmlns:svg="http://www.w3.org/2000/svg"
   xmlns="http://www.w3.org/2000/svg"
   version="1.1"
   width="943.46191"
   height="960.76892"
   id="svg4455">
  <defs
     id="defs4457" />
  <metadata
     id="metadata4460">
    <rdf:RDF>
      <cc:Work
         rdf:about="">
        <dc:format>image/svg+xml</dc:format>
        <dc:type
           rdf:resource="http://purl.org/dc/dcmitype/StillImage" />
        <dc:title></dc:title>
      </cc:Work>
    </rdf:RDF>
  </metadata>
  <g
     transform="translate(80.71964,-5.1485804)"
     id="layer1">
    <path
       d="M 196.82791,953.79786 C 103.40595,928.59025 -25.348212,792.88077 -62.422796,680.54593 -86.731007,606.89348 -86.803613,536.96535 -62.728246,424.53648 12.135329,75.468783 263.65518,-76.254698 561.29777,48.109802 c 57.7805,24.141863 105.05789,56.554118 105.05789,72.025328 0,62.13707 -88.00825,97.35695 -201.10348,80.48619 -161.49333,-24.09326 -299.21483,63.87566 -342.16931,218.56495 -47.305143,170.3458 -40.41908,215.86935 45.67462,301.96015 68.20212,68.20457 96.8543,76.18442 228.19575,63.56335 101.07745,-9.71217 174.6474,-37.39845 224.94835,-84.65469 C 741.94965,587.27811 719.35279,549.513 531.81821,549.513 c -90.65909,0 -173.99327,-14.81981 -185.18699,-32.93309 -40.10945,-64.89956 49.74368,-99.51397 263.32528,-101.43781 210.68873,-1.90748 217.96846,0.5176 245.3909,81.57388 34.75376,102.71004 -57.82888,310.80266 -176.48285,396.68114 -78.55373,56.85342 -363.0973,92.50722 -482.07252,60.40074 z"
       id="path3605"
       style="fill:#000000" />
  </g>
</svg>
