<?xml version="1.0" encoding="UTF-8" standalone="no"?>
<!-- Created with Inkscape (http://www.inkscape.org/) -->

<svg
   xmlns:dc="http://purl.org/dc/elements/1.1/"
   xmlns:cc="http://creativecommons.org/ns#"
   xmlns:rdf="http://www.w3.org/1999/02/22-rdf-syntax-ns#"
   xmlns:svg="http://www.w3.org/2000/svg"
   xmlns="http://www.w3.org/2000/svg"
   version="1.1"
   width="703.2005"
   height="972.35193"
   id="svg4455">
  <defs
     id="defs4457" />
  <metadata
     id="metadata4460">
    <rdf:RDF>
      <cc:Work
         rdf:about="">
        <dc:format>image/svg+xml</dc:format>
        <dc:type
           rdf:resource="http://purl.org/dc/dcmitype/StillImage" />
        <dc:title></dc:title>
      </cc:Work>
    </rdf:RDF>
  </metadata>
  <g
     transform="translate(-19.10869,-14.02722)"
     id="layer1">
    <path
       d="M 541.13131,970.82408 C 509.86962,951.50035 500.56158,891.37547 507.42127,753.00445 l 9.47144,-191.13026 -130.55623,20.87535 c -177.09916,28.31858 -182.82415,34.1645 -182.82415,186.6781 0,146.08433 -53.38918,216.05208 -139.614195,182.96315 C 14.301989,933.35789 11.065556,898.49139 29.29191,579.38001 50.012284,216.6104 105.15153,14.02722 183.17191,14.02722 c 65.63064,0 85.83479,81.145541 63.02173,253.10985 l -20.22621,152.48889 150.54479,-9.59518 150.54477,-9.59507 31.43186,-161.12011 C 592.3352,65.830723 640.27139,-6.2672157 698.0351,29.434054 c 26.43305,16.337505 30.66819,132.098936 15.67253,428.536466 -11.29868,223.38698 -26.9128,429.21313 -34.69934,457.39624 -17.83675,64.55816 -81.63127,90.21834 -137.87698,55.45732 z"
       id="path3653"
       style="fill:#000000" />
  </g>
</svg>
