<?xml version="1.0" encoding="UTF-8" standalone="no"?>
<!-- Created with Inkscape (http://www.inkscape.org/) -->

<svg
   xmlns:dc="http://purl.org/dc/elements/1.1/"
   xmlns:cc="http://creativecommons.org/ns#"
   xmlns:rdf="http://www.w3.org/1999/02/22-rdf-syntax-ns#"
   xmlns:svg="http://www.w3.org/2000/svg"
   xmlns="http://www.w3.org/2000/svg"
   version="1.1"
   width="917.01166"
   height="971.1806"
   id="svg4455">
  <defs
     id="defs4457" />
  <metadata
     id="metadata4460">
    <rdf:RDF>
      <cc:Work
         rdf:about="">
        <dc:format>image/svg+xml</dc:format>
        <dc:type
           rdf:resource="http://purl.org/dc/dcmitype/StillImage" />
        <dc:title></dc:title>
      </cc:Work>
    </rdf:RDF>
  </metadata>
  <g
     transform="translate(90.825714,-20.788842)"
     id="layer1">
    <path
       d="M -35.909792,897.90321 C -126.07231,781.3535 -101.0218,580.87756 8.586566,541.72517 c 49.17382,-17.56476 78.320127,36.64472 78.320127,145.67882 0,95.50884 22.557177,173.66109 50.125087,173.66109 115.06139,0 200.50657,-177.60768 200.50657,-416.77963 0,-240.54736 -11.26636,-255.44134 -193.19636,-255.44134 -126.706798,0 -184.208562,-28.91962 -167.082861,-84.02826 C -5.524729,49.384694 138.42854,20.788842 400.1994,20.788842 c 261.7715,0 405.72113,28.595852 422.94366,84.027008 16.39518,52.76191 -34.11478,84.02826 -135.76155,84.02826 -145.48283,0 -161.8663,25.70242 -161.8663,253.92453 0,139.671 -43.89035,321.16291 -97.53892,403.33177 -110.96821,169.97399 -351.678808,196.84849 -463.886082,51.8028 z"
       id="path4201"
       style="fill:#000000" />
  </g>
</svg>
