<?xml version="1.0" encoding="UTF-8" standalone="no"?>
<!-- Created with Inkscape (http://www.inkscape.org/) -->

<svg
   xmlns:dc="http://purl.org/dc/elements/1.1/"
   xmlns:cc="http://creativecommons.org/ns#"
   xmlns:rdf="http://www.w3.org/1999/02/22-rdf-syntax-ns#"
   xmlns:svg="http://www.w3.org/2000/svg"
   xmlns="http://www.w3.org/2000/svg"
   version="1.1"
   width="618.76758"
   height="1041.6545"
   id="svg4455">
  <defs
     id="defs4457" />
  <metadata
     id="metadata4460">
    <rdf:RDF>
      <cc:Work
         rdf:about="">
        <dc:format>image/svg+xml</dc:format>
        <dc:type
           rdf:resource="http://purl.org/dc/dcmitype/StillImage" />
        <dc:title></dc:title>
      </cc:Work>
    </rdf:RDF>
  </metadata>
  <path
     d="M 5.0738067,397.03649 C 13.923697,178.6676 44.726684,0 73.529114,0 c 28.799926,0 52.364976,73.93237 52.364976,164.29189 0,125.38536 24.84789,164.29197 104.93713,164.29197 63.92543,0 133.35634,-64.20623 177.65861,-164.29197 C 448.48713,73.93237 512.16214,0 549.988,0 667.72693,0 625.84682,152.41766 454.47556,347.59895 364.11582,450.51283 290.18352,549.31066 290.18352,567.15056 c 0,17.84233 73.9323,70.67008 164.29204,117.3966 90.35961,46.72679 164.29201,108.96837 164.29201,138.31508 0,80.4471 -177.27288,60.8163 -301.20185,-33.35485 C 214.35278,711.07853 206.45869,716.03982 180.65556,875.54944 165.59755,968.65024 128.63036,1043.3823 98.512154,1041.6241 16.072547,1036.8115 -12.786203,837.73094 5.0738067,397.03649 z"
     id="path7018-9"
     style="fill:#000000" />
</svg>
