<?xml version="1.0" encoding="UTF-8" standalone="no"?>
<!-- Created with Inkscape (http://www.inkscape.org/) -->

<svg
   xmlns:dc="http://purl.org/dc/elements/1.1/"
   xmlns:cc="http://creativecommons.org/ns#"
   xmlns:rdf="http://www.w3.org/1999/02/22-rdf-syntax-ns#"
   xmlns:svg="http://www.w3.org/2000/svg"
   xmlns="http://www.w3.org/2000/svg"
   version="1.1"
   width="1439.9685"
   height="1105.8683"
   id="svg4455">
  <defs
     id="defs4457" />
  <metadata
     id="metadata4460">
    <rdf:RDF>
      <cc:Work
         rdf:about="">
        <dc:format>image/svg+xml</dc:format>
        <dc:type
           rdf:resource="http://purl.org/dc/dcmitype/StillImage" />
        <dc:title></dc:title>
      </cc:Work>
    </rdf:RDF>
  </metadata>
  <path
     d="m 1182.3511,712.27041 c 0,-243.39239 -9.7626,-248.73599 -177.4157,-97.0166 C 781.6893,817.29128 768.16931,816.85142 618.96339,612.81133 509.6305,463.29008 490.40465,467.30524 386.56682,661.31951 324.30219,777.65222 209.41984,1008.852 131.25495,1008.852 -70.932525,1008.852 -47.095824,796.77987 255.62781,476.054 541.55683,173.10738 718.59835,-15.309066 799.793,178.97124 c 85.10507,266.12369 68.07589,157.77691 232.4646,-33.76481 210.2906,-245.030905 265.3294,-132.026284 348.1053,-9.5096 54.0731,80.03951 75.2981,271.04154 47.1703,424.45036 -28.1315,153.40843 -51.142,338.95352 -51.142,412.32232 0,73.37019 -43.6576,133.39879 -97.0166,133.39879 -53.3626,0 -97.0235,-251.92609 -97.0235,-393.59533 z"
     id="path7950"
     style="fill:#000000" />
</svg>
