<?xml version="1.0" encoding="UTF-8" standalone="no"?>
<!-- Created with Inkscape (http://www.inkscape.org/) -->

<svg
   xmlns:dc="http://purl.org/dc/elements/1.1/"
   xmlns:cc="http://creativecommons.org/ns#"
   xmlns:rdf="http://www.w3.org/1999/02/22-rdf-syntax-ns#"
   xmlns:svg="http://www.w3.org/2000/svg"
   xmlns="http://www.w3.org/2000/svg"
   version="1.1"
   width="705.84833"
   height="983.76105"
   id="svg4455">
  <defs
     id="defs4457" />
  <metadata
     id="metadata4460">
    <rdf:RDF>
      <cc:Work
         rdf:about="">
        <dc:format>image/svg+xml</dc:format>
        <dc:type
           rdf:resource="http://purl.org/dc/dcmitype/StillImage" />
        <dc:title></dc:title>
      </cc:Work>
    </rdf:RDF>
  </metadata>
  <g
     transform="translate(-44.280447,-20.803215)"
     id="layer1">
    <path
       d="M 81.426749,957.30544 C 26.188593,867.66384 35.012658,68.860593 91.630855,33.870283 c 20.638375,-12.75573 47.720745,-16.89228 60.184015,-9.18952 30.23545,18.6853 332.56989,372.200027 393.79657,460.458597 47.48758,68.4572 48.38152,65.2426 45.43319,-163.89372 -4.41166,-343.152897 86.15944,-399.706154 144.81492,-90.42474 24.80572,130.8083 15.54323,539.37007 -14.46736,638.11604 C 698.02242,945.82844 589.24912,857.78014 455.01455,653.31836 375.88151,532.78419 286.6027,411.96313 256.61738,384.82741 c -53.64732,-48.54964 -54.52184,-44.36814 -54.52184,260.70104 0,234.87439 -9.76242,318.14509 -40.27341,343.46509 -32.35942,26.85446 -48.15624,20.63006 -80.395381,-31.6881 z"
       id="path3673"
       style="fill:#000000" />
  </g>
</svg>
