<?xml version="1.0" encoding="UTF-8" standalone="no"?>
<!-- Created with Inkscape (http://www.inkscape.org/) -->

<svg
   xmlns:dc="http://purl.org/dc/elements/1.1/"
   xmlns:cc="http://creativecommons.org/ns#"
   xmlns:rdf="http://www.w3.org/1999/02/22-rdf-syntax-ns#"
   xmlns:svg="http://www.w3.org/2000/svg"
   xmlns="http://www.w3.org/2000/svg"
   version="1.1"
   width="962.55597"
   height="980.22412"
   id="svg4455">
  <defs
     id="defs4457" />
  <metadata
     id="metadata4460">
    <rdf:RDF>
      <cc:Work
         rdf:about="">
        <dc:format>image/svg+xml</dc:format>
        <dc:type
           rdf:resource="http://purl.org/dc/dcmitype/StillImage" />
        <dc:title></dc:title>
      </cc:Work>
    </rdf:RDF>
  </metadata>
  <g
     transform="translate(48.426122,-23.023654)"
     id="layer1">
    <path
       d="M 459.456,23.023654 C 266.52249,23.023654 88.601655,113.38146 17.016916,247.14032 -122.03143,506.95237 -31.54689,837.61437 213.1208,962.96201 289.17844,1001.9305 361.12851,1010.5122 500.02891,997.73862 658.21745,983.19145 700.57924,965.27608 790.80129,875.05408 879.21871,786.63773 898.8778,741.91666 910.58829,600.7044 928.70706,382.21649 877.89923,234.8774 744.43211,117.69371 651.43572,36.040636 612.93752,23.023654 459.456,23.023654 z m 47.33572,162.291536 c 55.89977,-2.89354 80.54967,17.54222 139.10675,83.07801 69.0322,77.25979 85.97554,125.03209 85.97554,247.30135 0,127.2086 -12.90491,162.71173 -81.14594,216.38884 -83.01785,65.30288 -326.02804,89.05749 -403.79488,39.60647 -50.91,-32.36864 -102.40152,-177.41897 -102.40152,-288.84025 0,-124.75163 135.94176,-258.28466 293.67188,-287.87411 27.8628,-5.22757 49.95435,-8.69612 68.58817,-9.66031 z"
       id="path3603"
       style="fill:#000000" />
  </g>
</svg>
