<?xml version="1.0" encoding="UTF-8" standalone="no"?>
<!-- Created with Inkscape (http://www.inkscape.org/) -->

<svg
   xmlns:dc="http://purl.org/dc/elements/1.1/"
   xmlns:cc="http://creativecommons.org/ns#"
   xmlns:rdf="http://www.w3.org/1999/02/22-rdf-syntax-ns#"
   xmlns:svg="http://www.w3.org/2000/svg"
   xmlns="http://www.w3.org/2000/svg"
   version="1.1"
   width="801.36053"
   height="1029.3373"
   id="svg4455">
  <defs
     id="defs4457" />
  <metadata
     id="metadata4460">
    <rdf:RDF>
      <cc:Work
         rdf:about="">
        <dc:format>image/svg+xml</dc:format>
        <dc:type
           rdf:resource="http://purl.org/dc/dcmitype/StillImage" />
        <dc:title></dc:title>
      </cc:Work>
    </rdf:RDF>
  </metadata>
  <g
     transform="translate(-52.686167,-26.080984)"
     id="layer1">
    <path
       d="m 475.2985,26.080984 c -160.7521,0 -308.40946,90.357826 -368.05205,224.117086 -115.854983,259.81169 -40.600837,590.47505 163.25601,715.8231 63.37117,38.96853 122.8775,47.54983 238.60843,34.77673 90.61447,-10.00331 135.97578,-22.37479 179.67985,-57.96134 34.99944,46.49906 66.33583,87.35594 85.01006,106.26274 11.54263,11.6881 35.99466,6.7849 54.09716,-11.5926 17.21567,-17.4808 -8.6092,-91.37772 -60.86071,-178.71581 C 827.06315,782.72174 842.08396,734.0093 851.0826,603.76124 866.17703,385.27373 824.14507,237.9349 712.94008,120.75079 635.45723,39.098123 603.18099,26.080984 475.2985,26.080984 z m 39.60869,162.291686 c 46.57601,-2.90597 67.13283,17.54248 115.92264,83.07736 57.51605,77.26051 71.48524,125.0329 71.48524,247.30142 0,102.48542 -7.16236,145.54665 -39.60824,186.44398 C 592.76028,614.7821 541.46121,577.94351 509.11089,595.06901 c -15.02965,7.95713 -18.19494,40.1616 -6.76388,71.48553 5.87054,16.14582 32.9744,58.3972 65.68976,107.22681 -89.4118,33.87097 -219.84793,38.87568 -269.5181,0.95637 -42.41854,-32.36865 -85.00997,-177.41703 -85.00997,-288.83849 0,-124.75155 112.98305,-258.28485 244.40166,-287.87458 23.21508,-5.22768 41.47214,-8.69561 56.99683,-9.66018 z"
       id="path3603-6"
       style="fill:#000000" />
  </g>
</svg>
