<?xml version="1.0" encoding="UTF-8" standalone="no"?>
<!-- Created with Inkscape (http://www.inkscape.org/) -->

<svg
   xmlns:dc="http://purl.org/dc/elements/1.1/"
   xmlns:cc="http://creativecommons.org/ns#"
   xmlns:rdf="http://www.w3.org/1999/02/22-rdf-syntax-ns#"
   xmlns:svg="http://www.w3.org/2000/svg"
   xmlns="http://www.w3.org/2000/svg"
   version="1.1"
   width="818.73254"
   height="982.71173"
   id="svg4455">
  <defs
     id="defs4457" />
  <metadata
     id="metadata4460">
    <rdf:RDF>
      <cc:Work
         rdf:about="">
        <dc:format>image/svg+xml</dc:format>
        <dc:type
           rdf:resource="http://purl.org/dc/dcmitype/StillImage" />
        <dc:title></dc:title>
      </cc:Work>
    </rdf:RDF>
  </metadata>
  <path
     d="M 293.36326,0.26801238 C 199.43589,2.6236024 107.46244,21.516612 70.212147,52.433082 c -56.481,46.873122 -98.05702,825.690048 -47.33487,886.807428 19.79611,23.8523 47.29756,43.4712 61.825062,43.4712 40.459031,0 128.827401,-148.22594 108.194551,-181.61176 C 156.01247,741.41966 213.17566,678.78721 323.31034,658.12867 430.95857,637.9331 442.75975,645.54533 578.3398,800.1336 679.63809,915.63301 736.04127,956.13311 772.50991,942.13891 865.71322,906.37271 818.23813,780.86132 627.6065,559.59415 572.61563,495.76579 571.53524,483.83041 616.98078,370.2541 661.45745,259.09526 661.05001,240.9001 613.11626,146.13729 575.69588,72.157172 530.30909,34.471282 452.75697,14.758502 406.24954,2.9345424 349.71945,-1.1449707 293.36326,0.26801238 z M 205.45557,178.9817 l 104.33014,0 c 188.24175,0 204.74643,139.13189 32.84493,274.35033 -46.2145,36.3499 -95.41789,65.68938 -110.12646,65.68938 -14.70955,0 -27.04861,-76.50853 -27.04861,-170.01954 l 0,-170.02017 z"
     id="path3575"
     style="fill:#000000" />
</svg>
