<?xml version="1.0" encoding="UTF-8" standalone="no"?>
<!-- Created with Inkscape (http://www.inkscape.org/) -->

<svg
   xmlns:dc="http://purl.org/dc/elements/1.1/"
   xmlns:cc="http://creativecommons.org/ns#"
   xmlns:rdf="http://www.w3.org/1999/02/22-rdf-syntax-ns#"
   xmlns:svg="http://www.w3.org/2000/svg"
   xmlns="http://www.w3.org/2000/svg"
   version="1.1"
   width="784.27594"
   height="990.62512"
   id="svg4455">
  <defs
     id="defs4457" />
  <metadata
     id="metadata4460">
    <rdf:RDF>
      <cc:Work
         rdf:about="">
        <dc:format>image/svg+xml</dc:format>
        <dc:type
           rdf:resource="http://purl.org/dc/dcmitype/StillImage" />
        <dc:title></dc:title>
      </cc:Work>
    </rdf:RDF>
  </metadata>
  <path
     d="M 41.480509,927.72258 C -58.725457,827.51258 38.482049,705.0524 164.63949,772.56826 307.1995,848.86418 597.21007,756.4843 597.21007,634.77507 597.21007,593.20696 380.5553,525.15558 248.20908,525.15558 79.583069,525.15558 -29.030867,283.2115 79.422499,149.17717 202.27273,-2.6503906 439.23412,-47.637681 567.7904,56.460579 c 85.83817,69.507251 55.71417,134.288131 -58.40632,125.594971 -140.97742,-10.74201 -207.38691,1.45497 -269.49056,49.42929 -59.39849,45.89931 -59.39849,46.8392 0,92.7381 33.00215,25.50329 113.68134,46.36904 179.28117,46.36904 394.85366,0 503.29536,394.24846 156.38431,568.5463 -146.46416,73.59082 -455.68068,66.97862 -534.078491,-11.4157 z"
     id="path3645"
     style="fill:#000000" />
</svg>
