<?xml version="1.0" encoding="UTF-8" standalone="no"?>
<!-- Created with Inkscape (http://www.inkscape.org/) -->

<svg
   xmlns:dc="http://purl.org/dc/elements/1.1/"
   xmlns:cc="http://creativecommons.org/ns#"
   xmlns:rdf="http://www.w3.org/1999/02/22-rdf-syntax-ns#"
   xmlns:svg="http://www.w3.org/2000/svg"
   xmlns="http://www.w3.org/2000/svg"
   version="1.1"
   width="829.362"
   height="1005.9906"
   id="svg4455">
  <defs
     id="defs4457" />
  <metadata
     id="metadata4460">
    <rdf:RDF>
      <cc:Work
         rdf:about="">
        <dc:format>image/svg+xml</dc:format>
        <dc:type
           rdf:resource="http://purl.org/dc/dcmitype/StillImage" />
        <dc:title></dc:title>
      </cc:Work>
    </rdf:RDF>
  </metadata>
  <path
     d="m 365.48645,725.94438 c -11.40626,1.08694 -20.16842,-20.09867 -38.00465,-67.01079 -18.28389,-48.09251 -43.33713,-100.55719 -43.33713,-117.01353 0,-16.45666 -22.68461,-95.44639 -35.66226,-153.06987 L 195.46413,208.87389 C 180.86054,179.31814 80.690329,-38.169838 21.440789,42.852098 -13.440478,90.560556 -8.019181,145.19852 54.447269,377.8982 168.76616,803.80718 268.6513,1007.575 369.48739,1005.9813 422.3037,1005.148 475.48512,948.438 531.50859,836.95731 696.74684,508.16817 813.14919,80.456919 753.53816,20.849207 695.31285,-37.379002 640.81925,25.960495 586.51732,215.87675 L 475.00174,518.41571 C 385.19806,710.54027 374.35813,725.08653 365.48645,725.94438 z"
     id="path3657-6"
     style="fill:#000000" />
</svg>
