<?xml version="1.0" encoding="UTF-8" standalone="no"?>
<!-- Created with Inkscape (http://www.inkscape.org/) -->

<svg
   xmlns:dc="http://purl.org/dc/elements/1.1/"
   xmlns:cc="http://creativecommons.org/ns#"
   xmlns:rdf="http://www.w3.org/1999/02/22-rdf-syntax-ns#"
   xmlns:svg="http://www.w3.org/2000/svg"
   xmlns="http://www.w3.org/2000/svg"
   xmlns:sodipodi="http://sodipodi.sourceforge.net/DTD/sodipodi-0.dtd"
   xmlns:inkscape="http://www.inkscape.org/namespaces/inkscape"
   version="1.1"
   width="1355.7007"
   height="1075.458"
   id="svg4455"
   inkscape:version="0.48.2 r9819"
   sodipodi:docname="w.svg">
  <sodipodi:namedview
     pagecolor="#ffffff"
     bordercolor="#666666"
     borderopacity="1"
     objecttolerance="10"
     gridtolerance="10"
     guidetolerance="10"
     inkscape:pageopacity="0"
     inkscape:pageshadow="2"
     inkscape:window-width="1075"
     inkscape:window-height="715"
     id="namedview5174"
     showgrid="false"
     fit-margin-top="0"
     fit-margin-left="0"
     fit-margin-right="0"
     fit-margin-bottom="0"
     inkscape:zoom="0.23718504"
     inkscape:cx="622.83297"
     inkscape:cy="192.70024"
     inkscape:window-x="0"
     inkscape:window-y="0"
     inkscape:window-maximized="0"
     inkscape:current-layer="svg4455" />
  <defs
     id="defs4457" />
  <metadata
     id="metadata4460">
    <rdf:RDF>
      <cc:Work
         rdf:about="">
        <dc:format>image/svg+xml</dc:format>
        <dc:type
           rdf:resource="http://purl.org/dc/dcmitype/StillImage" />
        <dc:title></dc:title>
      </cc:Work>
    </rdf:RDF>
  </metadata>
  <path
     style="fill:#000000"
     d="M 97.881949,918.83518 C 0.70825859,770.52965 -21.393579,611.59245 19.546115,355.55498 98.194278,-136.26193 265.70821,-109.50611 198.05619,384.07341 c -76.16036,555.62884 191.3622,620.77709 408.7484,99.5443 23.3805,-56.06874 106.17569,-14.21165 199.66177,100.94052 126.10553,155.33125 182.01381,174.4276 265.68754,90.75361 58.2842,-58.28344 105.9707,-195.43066 105.9707,-304.76843 0,-109.3371 38.895,-198.79759 86.431,-198.79759 161.1124,0 93.8755,571.51042 -86.431,734.68666 C 1014.4752,1054.5331 996.4961,1054.9481 840.96992,914.19504 734.06737,817.44558 656.91196,797.51036 620.07034,857.11591 588.93818,907.49636 489.16395,988.47705 398.35651,1037.0758 264.68355,1108.616 207.48768,1086.1101 97.881949,918.83518 z"
     id="path8014"
     inkscape:connector-curvature="0" />
</svg>
