<?xml version="1.0" encoding="UTF-8" standalone="no"?>
<!-- Created with Inkscape (http://www.inkscape.org/) -->

<svg
   xmlns:dc="http://purl.org/dc/elements/1.1/"
   xmlns:cc="http://creativecommons.org/ns#"
   xmlns:rdf="http://www.w3.org/1999/02/22-rdf-syntax-ns#"
   xmlns:svg="http://www.w3.org/2000/svg"
   xmlns="http://www.w3.org/2000/svg"
   version="1.1"
   width="1250.3113"
   height="1075.458"
   id="svg4455">
  <defs
     id="defs4457" />
  <metadata
     id="metadata4460">
    <rdf:RDF>
      <cc:Work
         rdf:about="">
        <dc:format>image/svg+xml</dc:format>
        <dc:type
           rdf:resource="http://purl.org/dc/dcmitype/StillImage" />
        <dc:title></dc:title>
      </cc:Work>
    </rdf:RDF>
  </metadata>
  <path
     d="M 85.218778,918.83518 C 0.61662938,770.52965 -18.625852,611.59245 17.017397,355.55498 85.490701,-136.26193 231.33304,-109.50611 172.43329,384.07341 c -66.30735,555.62884 166.60531,620.77709 355.86786,99.5443 20.35572,-56.06874 92.43954,-14.21165 173.83115,100.94052 109.79102,155.33125 158.46635,174.4276 231.31505,90.75361 50.74386,-58.28344 92.26105,-195.43066 92.26105,-304.76843 0,-109.3371 33.8631,-198.79759 75.2493,-198.79759 140.269,0 81.7307,571.51042 -75.2493,734.68666 C 883.23065,1054.5331 867.57754,1054.9481 732.17207,914.19504 639.0997,817.44558 571.92603,797.51036 539.85068,857.11591 512.74615,907.49636 425.8799,988.47705 346.82038,1037.0758 230.44094,1108.616 180.64461,1086.1101 85.218778,918.83518 z"
     id="path8014"
     style="fill:#000000" />
</svg>
