<?xml version="1.0" encoding="UTF-8" standalone="no"?>
<!-- Created with Inkscape (http://www.inkscape.org/) -->

<svg
   xmlns:dc="http://purl.org/dc/elements/1.1/"
   xmlns:cc="http://creativecommons.org/ns#"
   xmlns:rdf="http://www.w3.org/1999/02/22-rdf-syntax-ns#"
   xmlns:svg="http://www.w3.org/2000/svg"
   xmlns="http://www.w3.org/2000/svg"
   version="1.1"
   width="756.29761"
   height="1045.7684"
   id="svg4455">
  <defs
     id="defs4457" />
  <metadata
     id="metadata4460">
    <rdf:RDF>
      <cc:Work
         rdf:about="">
        <dc:format>image/svg+xml</dc:format>
        <dc:type
           rdf:resource="http://purl.org/dc/dcmitype/StillImage" />
        <dc:title></dc:title>
      </cc:Work>
    </rdf:RDF>
  </metadata>
  <path
     d="M 646.38084,0 C 602.00525,0 541.58912,67.684021 483.27569,190.76715 L 427.66088,269.7506 384.04001,209.17113 C 333.41779,138.86383 160.91524,1.157493 116.03719,30.258485 78.823504,54.390703 146.92268,193.20887 161.20624,256.14841 c 5.60141,24.69005 37.46494,84.97574 70.4378,133.4259 l 60.00732,88.18712 -155.23233,181.53941 C -4.5072392,854.23012 -56.695579,955.48335 79.017468,995.16929 135.61648,1011.7215 132.67509,988.76202 221.56785,873.64309 l 175.4137,-214.62715 90.46243,211.92798 c 31.14898,59.08293 77.16887,125.40364 101.94033,147.23048 49.29885,43.4485 96.3665,33.9211 122.90182,-16.8704 32.32726,-61.87376 24.01436,-205.14493 -14.40493,-253.05279 -20.6185,-25.71077 -60.89788,-89.48643 -89.9443,-141.096 l -52.79697,-93.55224 47.2049,-102.75576 c 25.94394,-56.35965 63.23024,-128.079 83.29146,-160.26666 C 740.34783,162.81765 787.3859,89.762491 730.36578,28.201472 704.4577,0.227355 668.7196,0 646.38084,0 z"
     id="path4837-2"
     style="fill:#000000" />
</svg>
