<?xml version="1.0" encoding="UTF-8" standalone="no"?>
<!-- Created with Inkscape (http://www.inkscape.org/) -->

<svg
   xmlns:dc="http://purl.org/dc/elements/1.1/"
   xmlns:cc="http://creativecommons.org/ns#"
   xmlns:rdf="http://www.w3.org/1999/02/22-rdf-syntax-ns#"
   xmlns:svg="http://www.w3.org/2000/svg"
   xmlns="http://www.w3.org/2000/svg"
   version="1.1"
   width="1022.0292"
   height="1111.6832"
   id="svg4455">
  <defs
     id="defs4457" />
  <metadata
     id="metadata4460">
    <rdf:RDF>
      <cc:Work
         rdf:about="">
        <dc:format>image/svg+xml</dc:format>
        <dc:type
           rdf:resource="http://purl.org/dc/dcmitype/StillImage" />
        <dc:title></dc:title>
      </cc:Work>
    </rdf:RDF>
  </metadata>
  <path
     d="M 77.433966,1078.3478 C 26.115606,1039.983 31.615096,1077.696 3.1355761,1014.1953 -12.716624,945.95706 34.987636,884.30632 68.926806,829.6491 201.01386,717.60221 337.49017,605.14706 435.42454,460.54836 466.5228,412.22743 538.19376,335.05895 490.69025,285.5014 428.70741,231.68313 304.12005,244.69985 227.74115,243.61283 173.73022,249.62161 86.098996,244.83996 108.00026,167.36802 107.13347,114.20634 108.30781,46.093672 164.92293,20.856377 257.78165,-20.005457 324.99535,13.275239 457.36958,4.9102925 644.63224,27.049126 718.47646,33.231785 850.31892,54.346178 c 61.5442,8.811153 124.5598,43.635836 142.3346,107.209632 5.8735,41.88469 48.85398,119.67559 -14.9926,128.07427 -150.715,70.45894 -278.51742,183.00809 -388.25703,306.54675 -56.6044,70.00975 -120.45448,146.50626 -126.10834,240.24022 -1.88477,58.89478 59.54066,83.47943 107.71204,93.67718 124.44524,31.51583 252.03105,-5.37981 377.63843,2.12034 60.50888,-0.68007 86.17238,65.71979 67.27848,116.34213 -8.7083,33.5795 -12.2045,48.0866 -110.80368,50.4002 -86.39435,5.2009 -120.51887,1.7698 -208.26764,6.8586 -177.50688,19.2204 -243.40953,-14.6401 -421.81275,-18.0566 z"
     id="path7950-9"
     style="fill:#000000" />
</svg>
