<?xml version="1.0" encoding="UTF-8" standalone="no"?>
<!-- Created with Inkscape (http://www.inkscape.org/) -->

<svg
   xmlns:dc="http://purl.org/dc/elements/1.1/"
   xmlns:cc="http://creativecommons.org/ns#"
   xmlns:rdf="http://www.w3.org/1999/02/22-rdf-syntax-ns#"
   xmlns:svg="http://www.w3.org/2000/svg"
   xmlns="http://www.w3.org/2000/svg"
   xmlns:sodipodi="http://sodipodi.sourceforge.net/DTD/sodipodi-0.dtd"
   xmlns:inkscape="http://www.inkscape.org/namespaces/inkscape"
   width="138.6875"
   height="44.044052"
   id="svg2"
   version="1.1"
   inkscape:version="0.48.5 r10040"
   sodipodi:docname="eye.svg">
  <defs
     id="defs4" />
  <sodipodi:namedview
     id="base"
     pagecolor="#ffffff"
     bordercolor="#666666"
     borderopacity="1.0"
     inkscape:pageopacity="0.0"
     inkscape:pageshadow="2"
     inkscape:zoom="2.8"
     inkscape:cx="99.306386"
     inkscape:cy="4.4404395"
     inkscape:document-units="px"
     inkscape:current-layer="layer1"
     showgrid="false"
     inkscape:window-width="1322"
     inkscape:window-height="794"
     inkscape:window-x="0"
     inkscape:window-y="0"
     inkscape:window-maximized="0"
     fit-margin-top="0"
     fit-margin-left="0"
     fit-margin-right="0"
     fit-margin-bottom="0" />
  <metadata
     id="metadata7">
    <rdf:RDF>
      <cc:Work
         rdf:about="">
        <dc:format>image/svg+xml</dc:format>
        <dc:type
           rdf:resource="http://purl.org/dc/dcmitype/StillImage" />
        <dc:title></dc:title>
      </cc:Work>
    </rdf:RDF>
  </metadata>
  <g
     inkscape:label="Layer 1"
     inkscape:groupmode="layer"
     id="layer1"
     transform="translate(-289.40625,-336.47742)">
    <path
       style="fill:none;stroke:#000000;stroke-width:0.97390962px;stroke-linecap:butt;stroke-linejoin:miter;stroke-opacity:1"
       d="m 290.71429,359.50504 22.35749,-12.5 c 0,0 11.17876,-7.5 20.32501,-8.57143 9.14624,-1.07143 14.2275,-2.5 24.72874,-0.35714 10.50125,2.14285 25.745,6.07143 25.745,6.07143 0,0 19.98626,5 26.08375,6.07142 6.0975,1.07143 16.26001,3.57143 16.26001,3.57143 0,0 -9.82375,2.85715 -14.90501,5 -5.08124,2.14286 -9.14624,3.21429 -17.27624,7.14286 -8.13,3.92857 -18.97,10.71429 -28.11625,12.14286 -9.14626,1.42857 -15.92125,3.21428 -25.0675,0.71428 -9.14626,-2.5 -29.13251,-11.07143 -33.1975,-13.57143 -4.06501,-2.5 -16.9375,-5.71428 -16.9375,-5.71428 z"
       id="path3162"
       inkscape:connector-curvature="0" />
  </g>
</svg>
