<?xml version="1.0" encoding="UTF-8" standalone="no"?>
<!-- Created with Inkscape (http://www.inkscape.org/) -->

<svg
   xmlns:dc="http://purl.org/dc/elements/1.1/"
   xmlns:cc="http://creativecommons.org/ns#"
   xmlns:rdf="http://www.w3.org/1999/02/22-rdf-syntax-ns#"
   xmlns:svg="http://www.w3.org/2000/svg"
   xmlns="http://www.w3.org/2000/svg"
   version="1.1"
   width="715.07092"
   height="947.59076"
   id="svg4455">
  <defs
     id="defs4457" />
  <metadata
     id="metadata4460">
    <rdf:RDF>
      <cc:Work
         rdf:about="">
        <dc:format>image/svg+xml</dc:format>
        <dc:type
           rdf:resource="http://purl.org/dc/dcmitype/StillImage" />
        <dc:title></dc:title>
      </cc:Work>
    </rdf:RDF>
  </metadata>
  <g
     transform="translate(-15.166309,-0.449729)"
     id="layer1">
    <path
       d="M 61.902624,925.54546 C 10.460846,896.32382 7.1218187,862.25801 24.964726,548.56248 35.753187,358.89135 58.978031,157.97456 76.570445,102.0784 L 108.562,0.449729 376.2687,9.340422 c 250.94928,8.333671 268.32219,13.242571 277.58072,78.443561 5.79893,40.823507 -6.97079,71.025277 -30.91261,73.121107 -22.43352,1.94667 -54.70007,6.79787 -71.70201,10.74509 -17.00193,3.95047 -96.98811,9.30168 -177.74787,11.89242 l -146.8351,4.70754 0,123.65086 c 0,123.22111 0.43284,123.65067 121.1221,123.65067 150.19481,0 218.91712,24.95601 218.91712,79.50126 0,59.47285 -100.8405,105.97486 -229.81394,105.97486 -60.62291,0 -110.22528,12.77336 -110.22528,28.38433 0,15.61083 -8.44269,50.38772 -18.76396,77.28167 -16.0313,41.7754 13.38492,48.89729 201.90312,48.89729 171.83705,0 224.77797,10.72065 239.25783,48.44666 10.2227,26.64684 4.12686,62.9103 -13.54934,80.58598 -43.95475,43.95512 -503.53939,60.71568 -573.596856,20.92174 z"
       id="path3599"
       style="fill:#000000" />
  </g>
</svg>
