<?xml version="1.0" encoding="UTF-8" standalone="no"?>
<!-- Created with Inkscape (http://www.inkscape.org/) -->

<svg
   xmlns:dc="http://purl.org/dc/elements/1.1/"
   xmlns:cc="http://creativecommons.org/ns#"
   xmlns:rdf="http://www.w3.org/1999/02/22-rdf-syntax-ns#"
   xmlns:svg="http://www.w3.org/2000/svg"
   xmlns="http://www.w3.org/2000/svg"
   version="1.1"
   width="671.88116"
   height="954.98511"
   id="svg4455">
  <defs
     id="defs4457" />
  <metadata
     id="metadata4460">
    <rdf:RDF>
      <cc:Work
         rdf:about="">
        <dc:format>image/svg+xml</dc:format>
        <dc:type
           rdf:resource="http://purl.org/dc/dcmitype/StillImage" />
        <dc:title></dc:title>
      </cc:Work>
    </rdf:RDF>
  </metadata>
  <g
     transform="translate(-53.868592,-1.9765012)"
     id="layer1">
    <path
       d="M 79.260788,936.39806 C 50.645127,918.26905 47.689203,834.52646 63.038122,476.62139 73.361844,235.93697 89.107199,34.64174 98.028132,29.3021 136.01005,6.574795 506.19317,-8.130544 575.27653,10.345852 c 57.33649,15.333812 75.47322,35.091973 75.47322,82.214928 0,59.7001 -7.44511,62.3132 -197.99452,69.49468 -108.89716,4.10317 -197.99437,17.53326 -197.99437,29.84458 0,12.31143 -6.75758,39.99276 -15.01739,61.51682 -12.34189,32.16684 13.8088,40.49784 146.8993,46.79805 153.38563,7.26067 161.91623,11.0109 161.91623,71.18312 0,37.15684 -15.90383,65.6426 -38.32173,68.63391 -21.07683,2.81056 -92.92968,12.2963 -159.67287,21.0744 l -121.35145,15.96212 0,214.69226 c 0,186.11262 -6.57616,218.21048 -49.41434,241.13709 -58.89513,31.52051 -56.43981,31.43387 -100.537822,3.50025 z"
       id="path3607"
       style="fill:#000000" />
  </g>
</svg>
