<?xml version="1.0" encoding="UTF-8" standalone="no"?>
<!-- Created with Inkscape (http://www.inkscape.org/) -->

<svg
   xmlns:dc="http://purl.org/dc/elements/1.1/"
   xmlns:cc="http://creativecommons.org/ns#"
   xmlns:rdf="http://www.w3.org/1999/02/22-rdf-syntax-ns#"
   xmlns:svg="http://www.w3.org/2000/svg"
   xmlns="http://www.w3.org/2000/svg"
   version="1.1"
   width="1262.488"
   height="1105.8683"
   id="svg4455">
  <defs
     id="defs4457" />
  <metadata
     id="metadata4460">
    <rdf:RDF>
      <cc:Work
         rdf:about="">
        <dc:format>image/svg+xml</dc:format>
        <dc:type
           rdf:resource="http://purl.org/dc/dcmitype/StillImage" />
        <dc:title></dc:title>
      </cc:Work>
    </rdf:RDF>
  </metadata>
  <path
     d="m 979.14604,712.27041 c 0,-243.39239 -8.08472,-248.73599 -146.92409,-97.0166 C 647.34409,817.29128 636.14772,816.85142 512.58511,612.81133 422.04274,463.29008 406.12115,467.30524 320.12943,661.31951 268.56592,777.65222 173.42785,1008.852 108.69679,1008.852 c -167.438481,0 -147.69848,-212.07213 102.99749,-532.798 236.78777,-302.94662 383.402,-491.363067 450.64212,-297.08276 70.47847,266.12369 56.37601,157.77691 192.51202,-33.76481 174.14888,-245.030906 219.72848,-132.026285 288.27808,-9.5096 44.7798,80.03951 62.357,271.04154 39.0633,424.45036 -23.2966,153.40843 -42.3524,338.95352 -42.3524,412.32232 0,73.37019 -36.1544,133.39879 -80.3428,133.39879 -44.1915,0 -80.34856,-251.92609 -80.34856,-393.59533 z"
     id="path7950"
     style="fill:#000000" />
</svg>
